<?xml version="1.0" encoding="utf-8"?>
<!-- Generator: Adobe Illustrator 19.2.1, SVG Export Plug-In . SVG Version: 6.00 Build 0)  -->
<svg version="1.1" id="logo" xmlns="http://www.w3.org/2000/svg" xmlns:xlink="http://www.w3.org/1999/xlink" x="0px" y="0px"
	 viewBox="0 0 733.8 183.5" style="enable-background:new 0 0 733.8 183.5;" xml:space="preserve">
<style type="text/css">
	.st0{fill:#595A5C;}
	.st1{fill:#3A6B53;}
	.st2{fill:#35664F;}
	.st3{fill:#709751;}
	.st4{fill:#B1CB57;}
</style>
<title>logo-color</title>
<g id="color">
	<path class="st0" d="M247.6,98.4h-17v29.3H221V55.2h24c8.2,0,14.4,1.9,18.8,5.6c4.4,3.7,6.6,9.1,6.6,16.2c0.1,4.2-1.2,8.4-3.7,11.8
		c-2.6,3.5-6.1,6.1-10.2,7.5l17,30.8v0.6h-10.3L247.6,98.4z M230.6,90.6h14.7c4.7,0,8.5-1.2,11.3-3.7c2.8-2.5,4.4-6.1,4.2-9.9
		c0-4.5-1.3-7.9-4-10.3c-2.7-2.4-6.5-3.6-11.6-3.6h-14.7L230.6,90.6L230.6,90.6z"/>
	<path class="st0" d="M281.5,59.5c0-1.4,0.5-2.7,1.4-3.8c1.1-1.1,2.5-1.7,4.1-1.5c1.5-0.1,3,0.5,4.1,1.5c0.9,1,1.4,2.4,1.4,3.8
		c0,3-2.4,5.5-5.5,5.5S281.5,62.6,281.5,59.5z M291.5,127.7h-9.2V73.8h9.2V127.7L291.5,127.7z"/>
	<path class="st0" d="M335.5,113.4c0.1-2.3-1-4.5-2.8-5.8c-1.9-1.4-5.1-2.6-9.8-3.6c-3.8-0.7-7.6-1.9-11.1-3.6
		c-2.4-1.1-4.5-2.8-6.1-5c-1.4-2-2.1-4.4-2-6.9c0-4.4,2.1-8.6,5.6-11.2c3.7-3.1,8.5-4.6,14.3-4.6c6.1,0,11.1,1.6,14.9,4.7
		c3.7,2.9,5.8,7.4,5.7,12.1h-9.3c0-2.6-1.2-5-3.2-6.5c-2.3-1.9-5.1-2.8-8.1-2.7c-3.3,0-6,0.7-7.9,2.2c-1.8,1.3-2.9,3.5-2.8,5.7
		c-0.1,2,0.9,3.9,2.6,5c1.8,1.1,4.9,2.2,9.5,3.2c3.9,0.8,7.6,2,11.2,3.7c2.5,1.2,4.7,2.9,6.4,5.2c1.4,2.2,2.2,4.8,2.1,7.4
		c0.1,4.6-2.1,8.9-5.8,11.6c-3.9,2.9-8.9,4.4-15,4.4c-3.9,0.1-7.8-0.7-11.5-2.3c-3.1-1.4-5.8-3.6-7.8-6.4c-1.8-2.6-2.8-5.7-2.8-8.9
		h9.2c0.1,2.9,1.4,5.6,3.7,7.3c2.6,1.9,5.9,2.9,9.1,2.7c2.9,0.1,5.9-0.6,8.4-2.1C334.3,117.9,335.5,115.7,335.5,113.4z"/>
	<path class="st0" d="M354.8,59.5c0-1.4,0.5-2.7,1.4-3.8c1.1-1.1,2.5-1.7,4.1-1.5c1.5-0.1,3,0.5,4.1,1.5c0.9,1,1.4,2.4,1.4,3.8
		c0,3-2.4,5.5-5.5,5.5S354.8,62.6,354.8,59.5z M364.8,127.7h-9.2V73.8h9.2V127.7L364.8,127.7z"/>
	<path class="st0" d="M386.7,73.8l0.3,6.8c3.8-5,9.8-7.9,16.1-7.8c11.4,0,17.1,6.4,17.2,19.3v35.6h-9.2V92.1c0-3.9-0.9-6.8-2.7-8.6
		s-4.5-2.8-8.1-2.8c-2.8-0.1-5.6,0.8-7.9,2.4c-2.3,1.6-4.1,3.8-5.3,6.3v38.4H378V73.8H386.7z"/>
	<path class="st0" d="M430.6,100.3c0-8.4,1.9-15.1,5.8-20c3.6-4.9,9.4-7.7,15.4-7.5c6.6,0,11.7,2.3,15.4,7l0.5-6h8.4v52.6
		c0,7-2.1,12.5-6.2,16.5c-4.1,4-9.7,6-16.6,6c-3.9,0-7.8-0.9-11.4-2.5c-3.4-1.4-6.4-3.8-8.5-6.8l4.8-5.5c3.9,4.9,8.8,7.3,14.5,7.3
		c4.5,0,8-1.3,10.5-3.8c2.5-2.5,3.8-6.1,3.8-10.6v-4.6c-3.7,4.2-8.7,6.4-15.1,6.4c-6,0.1-11.8-2.7-15.3-7.6
		C432.6,116,430.6,109.1,430.6,100.3z M439.9,101.3c0,6.1,1.2,10.8,3.7,14.3c2.4,3.4,6.3,5.4,10.5,5.2c5.8,0,10.1-2.6,12.8-7.9V88.4
		c-2.8-5.1-7.1-7.7-12.7-7.7c-4.2-0.2-8.1,1.8-10.5,5.2C441.2,89.4,439.9,94.5,439.9,101.3L439.9,101.3z"/>
	<path class="st0" d="M511.8,95.4c-8.2-2.4-14.2-5.3-17.9-8.7c-3.6-3.2-5.7-7.9-5.6-12.7c-0.1-5.5,2.5-10.8,6.8-14.2
		c4.6-3.7,10.5-5.6,17.8-5.6c4.6-0.1,9.2,0.9,13.3,2.9c3.7,1.8,6.8,4.5,9.1,8c2.1,3.3,3.2,7.2,3.2,11.1h-9.6c0-4.4-1.4-7.9-4.2-10.4
		c-2.8-2.5-6.7-3.8-11.8-3.8c-4.7,0-8.4,1-11,3.1c-2.7,2.1-4.1,5.3-4,8.7c0,3,1.4,5.7,3.8,7.5c2.5,2,6.8,3.9,12.8,5.6
		c4.9,1.3,9.7,3.1,14.1,5.6c3.1,1.7,5.7,4.2,7.6,7.1c1.7,2.9,2.5,6.2,2.5,9.6c0.2,5.5-2.4,10.8-6.9,14.1c-4.6,3.5-10.7,5.3-18.4,5.3
		c-4.8,0-9.5-0.9-13.9-2.9c-4-1.6-7.5-4.4-10-7.8c-2.3-3.3-3.6-7.3-3.5-11.3h9.6c-0.2,4,1.6,7.9,4.9,10.4c3.2,2.5,7.6,3.8,13,3.8
		c5,0,8.9-1,11.6-3.1c2.6-2,4.1-5.1,4-8.4c0.2-3.2-1.2-6.3-3.7-8.2C522.9,99.2,518.4,97.3,511.8,95.4z"/>
	<path class="st0" d="M563.9,60.8v13h10v7.1h-10v33.5c-0.1,1.7,0.3,3.4,1.3,4.9c0.9,1.1,2.4,1.6,4.6,1.6c1.5-0.1,2.9-0.3,4.4-0.6
		v7.4c-2.3,0.6-4.7,1-7.1,1c-4.1,0-7.2-1.2-9.3-3.7c-2.1-2.5-3.1-6-3.1-10.6V81h-9.8v-7.1h9.8V60.8H563.9z"/>
	<path class="st0" d="M616.2,127.7c-0.7-1.8-1.1-3.7-1.3-5.7c-3.9,4.3-9.5,6.7-15.3,6.7c-5.3,0-9.7-1.5-13.1-4.5
		c-3.3-2.8-5.2-7-5.1-11.4c0-5.6,2.1-10,6.4-13.1c4.3-3.1,10.3-4.7,18-4.7h9v-4.3c0.1-2.8-0.9-5.6-2.9-7.6c-1.9-1.9-4.8-2.9-8.5-2.9
		c-3-0.1-5.9,0.8-8.3,2.5c-2,1.3-3.3,3.6-3.3,6h-9.3c0.1-2.8,1.1-5.6,2.9-7.8c2-2.6,4.7-4.7,7.8-5.9c3.4-1.5,7.1-2.2,10.8-2.2
		c6.2,0,11.1,1.6,14.6,4.7s5.3,7.4,5.5,12.8v24.8c0,4.9,0.6,8.9,1.9,11.8v0.8L616.2,127.7L616.2,127.7z M600.9,120.7
		c2.9,0,5.7-0.8,8.2-2.2c2.4-1.3,4.4-3.4,5.6-5.8v-11.1h-7.2c-11.3,0-16.9,3.3-16.9,9.9c-0.1,2.6,0.9,5.1,2.9,6.8
		C595.6,119.9,598.2,120.8,600.9,120.7L600.9,120.7z"/>
	<path class="st0" d="M658.2,121.2c3.1,0,6.2-1,8.6-3c2.4-1.8,3.8-4.5,4.1-7.5h8.7c-0.2,3.2-1.3,6.2-3.2,8.8c-2,2.8-4.7,5.1-7.8,6.7
		c-3.2,1.6-6.8,2.5-10.4,2.5c-7.3,0-13.2-2.4-17.5-7.3c-4.3-4.9-6.5-11.6-6.5-20.1v-1.5c-0.1-4.8,0.9-9.6,2.9-14
		c1.8-3.9,4.7-7.2,8.3-9.5c3.8-2.3,8.3-3.5,12.8-3.4c5.5-0.2,10.9,1.8,15.1,5.4c4,3.6,6.3,8.7,6.4,14.1h-8.7c-0.2-3.3-1.6-6.3-4-8.6
		c-2.4-2.2-5.5-3.4-8.8-3.4c-4.7,0-8.3,1.7-10.9,5.1s-3.9,8.2-3.9,14.6v1.7c0,6.2,1.3,11,3.8,14.3S653.5,121.2,658.2,121.2z"/>
	<path class="st0" d="M704.2,102.8l-5.8,6v18.9h-9.2V51.2h9.2v46.3l4.9-5.9l16.8-17.7h11.2l-21,22.5l23.4,31.4H723L704.2,102.8z"/>
	<path class="st1" d="M80,74l39,14.6l19.8-7.4L80.3,59.2L80,59.1l-58.6,22l19.8,7.4L80,74z M80,73.1L80,73.1L80,73.1L80,73.1
		L80,73.1z"/>
	<polygon class="st2" points="146.1,135.6 146.1,143.9 80,168.7 13.9,143.9 13.9,135.6 0,130.4 0,153.5 79.7,183.4 80,183.5 
		160,153.5 160,130.4 	"/>
	<polygon class="st3" points="140.1,66.9 140.1,52 80.3,29.7 80,29.6 19.9,52.1 19.9,67 80,44.4 	"/>
	<polygon class="st3" points="146.1,106.1 146.1,114.3 80,139.1 13.9,114.3 13.9,106 0,100.8 0,124 79.7,153.9 80,154 160,124 
		160,100.9 	"/>
	<path class="st4" d="M80.3,0.1L80,0L0,30v64.4l79.7,29.9l0.3,0.1l80-30V30L80.3,0.1z M146.1,39.6v45.1L80,109.6L13.9,84.8V39.6
		L80,14.8L146.1,39.6z"/>
</g>
</svg>
