<svg width="495" height="132" xmlns="http://www.w3.org/2000/svg">
 <!-- Generator: Sketch 52.2 (67145) - http://www.bohemiancoding.com/sketch -->

 <title>400 x 400 copy 2</title>
 <desc>Created with Sketch.</desc>
 <g>
  <title>background</title>
  <rect fill="none" id="canvas_background" height="134" width="497" y="-1" x="-1"/>
 </g>
 <g>
  <title>Layer 1</title>
  <g fill-rule="evenodd" fill="none" id="400-x-400-copy-2">
   <path fill-rule="nonzero" fill="#FFFFFF" id="Path-11" d="m132.511429,111.253517c1.65686,0 3,1.34314 3,3c0,1.65686 -1.34314,3 -3,3l-104.1908,0l-0.559769,-0.236465c-13.3456,-5.637749 -20.26086,-14.996605 -20.26086,-27.703659c0,-9.446793 3.13863,-17.410683 10.353991,-23.937271c4.480219,-4.052544 9.16152,-6.985535 14.039879,-8.775513c1.40415,-25.002338 12.691031,-41.744339 33.678892,-49.687718c21.003426,-7.94927 43.943642,-2.929131 68.596535,14.761079c10.975235,-5.79784 22.415009,-8.20735 34.25647,-7.200439c12.434189,1.057301 24.086685,5.77667 34.90509,14.110981c1.312531,1.011158 1.556839,2.894878 0.545685,4.207409c-1.011139,1.312531 -2.894867,1.556839 -4.207397,0.545689c-9.928802,-7.648979 -20.495255,-11.928499 -31.75174,-12.885658c-11.236145,-0.955431 -22.047333,1.49329 -32.506699,7.378811l-1.689926,0.950928l-1.561005,-1.150368c-23.733543,-17.490101 -45.141777,-22.419561 -64.463188,-15.106892c-19.196045,7.265221 -29.096947,22.52766 -29.899937,46.371498l-0.072639,2.156914l-2.068069,0.616928c-4.718981,1.407707 -9.309332,4.114853 -13.777012,8.156052c-5.883349,5.321739 -8.378929,11.653961 -8.378929,19.487572c0,9.999046 5.194759,17.194191 16.045601,21.940125l102.965828,0z"/>
   <g stroke-width="3" stroke="#FFFFFF" fill-rule="nonzero" id="Group-2">
    <path id="Path-12" d="m72.072464,79.967819l15.034935,0c2.2145,-8.801437 2.891762,-15.32251 2.031769,-19.56321c-0.860001,-4.2407 -4.073051,-10.125568 -9.639168,-17.65461c-5.543854,7.406399 -8.757004,13.285278 -9.639427,17.63665c-0.882446,4.351372 -0.145142,10.878426 2.211891,19.581169z"/>
    <path id="Path-13" d="m71.68721,56.821411l16.31279,0"/>
    <g stroke-linecap="round" id="Stacked-Group-5">
     <path id="Path-14" d="m79.5,86.75l0,11"/>
     <path id="Path-14" d="m85,86.75l0,6"/>
     <path id="Path-14" d="m74,86.75l0,6"/>
    </g>
    <path id="Path-15" d="m70.681892,70.75c-2.45742,1.394112 -4.24765,3.354881 -5.370682,5.882309c-0.926888,2.085991 -1.040642,6.127106 -0.437531,9.69693c0.12793,0.757233 0.269478,1.488983 0.424667,2.195236l-0.000069,0.000015c0.081223,0.369644 0.446724,0.60347 0.816368,0.522247c0.293442,-0.064476 0.510666,-0.312569 0.535812,-0.611954c0,0 0,0 0,0c0.275429,-3.279602 0.890984,-5.398323 1.846657,-6.35614c1.321686,-1.324654 2.439644,-2.061096 3.353882,-2.20932"/>
    <path id="Path-15" d="m88.669106,70.75c2.45742,1.394112 4.24765,3.354881 5.370689,5.882309c0.92688,2.085991 1.040627,6.127106 0.437515,9.69693c-0.12793,0.757233 -0.269478,1.488983 -0.424667,2.195236l0.000069,0.000015c-0.081215,0.369644 -0.446716,0.60347 -0.816368,0.522247c-0.293442,-0.064476 -0.510658,-0.312569 -0.535812,-0.611954c0,0 0,0 0,0c-0.275429,-3.279602 -0.890976,-5.398323 -1.846657,-6.35614c-1.321678,-1.324654 -2.439644,-2.061096 -3.353882,-2.20932"/>
   </g>
   <path fill="#FFFFFF" id="CloudNativeJS.io" d="m130.388672,54.74316c-3.922539,0 -7.019035,1.306141 -9.289551,3.918461c-2.270508,2.61232 -3.405762,6.188934 -3.405762,10.72998c0,4.671249 1.094551,8.280426 3.283691,10.827637c2.18914,2.547211 5.310036,3.820801 9.362793,3.820801c2.49025,0 5.330383,-0.447586 8.520508,-1.342766l0,3.637688c-2.473969,0.927742 -5.525696,1.391602 -9.155273,1.391602c-5.257187,0 -9.31395,-1.595039 -12.17041,-4.785156c-2.856461,-3.190117 -4.284668,-7.722954 -4.284668,-13.598633c0,-3.678406 0.687653,-6.901024 2.062988,-9.667973c1.375328,-2.766941 3.360992,-4.899082 5.957031,-6.396481c2.596039,-1.497402 5.65184,-2.24609 9.16748,-2.24609c3.743515,0 7.014954,0.683578 9.814453,2.050781l-1.757813,3.564449c-2.701843,-1.269543 -5.403625,-1.904301 -8.105469,-1.904301zm19.702148,32.495121l-4.052734,0l0,-37.988281l4.052734,0l0,37.988281zm31.689453,-13.40332c0,4.362 -1.098618,7.767731 -3.295898,10.217293c-2.197281,2.449547 -5.232727,3.674309 -9.106445,3.674309c-2.392593,0 -4.516586,-0.561516 -6.37207,-1.68457c-1.855484,-1.123055 -3.28775,-2.734375 -4.296875,-4.833984c-1.009125,-2.099617 -1.513672,-4.557281 -1.513672,-7.373047c0,-4.362 1.090485,-7.75959 3.271484,-10.192871c2.181,-2.433281 5.208313,-3.649899 9.082031,-3.649899c3.743515,0 6.717926,1.245098 8.92334,3.735348c2.205414,2.490242 3.308105,5.859352 3.308105,10.107422zm-20.385742,0c0,3.417976 0.683594,6.022133 2.050781,7.8125c1.367188,1.790382 3.377258,2.685547 6.030273,2.685547c2.653015,0 4.667145,-0.891106 6.04248,-2.67334c1.375336,-1.782234 2.062988,-4.390434 2.062988,-7.824707c0,-3.401711 -0.687653,-5.985504 -2.062988,-7.751465c-1.375336,-1.765961 -3.405746,-2.648926 -6.091309,-2.648926c-2.653015,0 -4.654938,0.870758 -6.005859,2.612305c-1.350922,1.741547 -2.026367,4.337547 -2.026367,7.788086zm31.298828,-13.354492l0,17.358398c0,2.181 0.496414,3.808586 1.489258,4.882813c0.992844,1.074234 2.547195,1.611328 4.663086,1.611328c2.7995,0 4.846191,-0.764969 6.140137,-2.294914c1.293945,-1.529961 1.940918,-4.028313 1.940918,-7.495125l0,-14.0625l4.052734,0l0,26.757813l-3.344727,0l-0.585938,-3.588875l-0.219727,0c-0.830078,1.318375 -1.981598,2.327477 -3.45459,3.027351c-1.472992,0.699875 -3.153473,1.049805 -5.041504,1.049805c-3.255219,0 -5.692535,-0.773102 -7.312012,-2.319336c-1.619476,-1.546234 -2.429199,-4.020164 -2.429199,-7.421875l0,-17.504883l4.101563,0zm45.092773,23.168938l-0.219727,0c-1.87175,2.718117 -4.671204,4.077156 -8.398438,4.077156c-3.499359,0 -6.221512,-1.196274 -8.166504,-3.58886c-1.944992,-2.392601 -2.91748,-5.794266 -2.91748,-10.205086c0,-4.410828 0.976547,-7.836906 2.929688,-10.278316c1.95314,-2.441422 4.671204,-3.662109 8.154297,-3.662109c3.629578,0 6.41275,1.318348 8.349609,3.955078l0.317383,0l-0.170898,-1.928719l-0.097656,-1.879879l0,-10.888672l4.052734,0l0,37.988281l-3.295898,0l-0.537109,-3.588875zm-8.105469,0.683601c2.766937,0 4.772949,-0.752754 6.018066,-2.258301c1.245117,-1.505539 1.867676,-3.934715 1.867676,-7.287598l0,-0.854492c0,-3.792336 -0.630692,-6.498207 -1.89209,-8.117676c-1.261398,-1.619476 -3.275543,-2.429203 -6.04248,-2.429203c-2.376312,0 -4.195145,0.923664 -5.456543,2.771c-1.261398,1.847343 -1.89209,4.455551 -1.89209,7.824715c0,3.417976 0.626617,5.997704 1.879883,7.73925c1.253265,1.741547 3.092438,2.612305 5.517578,2.612305zm49.023438,2.905273l-4.736328,0l-19.506836,-29.956051l-0.195313,0c0.260422,3.51564 0.390625,6.738262 0.390625,9.667965l0,20.288086l-3.833008,0l0,-35.693359l4.6875,0l19.458008,29.833984l0.195313,0c-0.032562,-0.439453 -0.105804,-1.851387 -0.219727,-4.23584c-0.113922,-2.384453 -0.154633,-4.089348 -0.12207,-5.114746l0,-20.483398l3.881836,0l0,35.693359zm25.65918,0l-0.805664,-3.808594l-0.195313,0c-1.334656,1.67643 -2.665192,2.811684 -3.991699,3.405762c-1.326508,0.594078 -2.982574,0.891113 -4.968262,0.891113c-2.653015,0 -4.732239,-0.683586 -6.237793,-2.050781c-1.505554,-1.367188 -2.258301,-3.312164 -2.258301,-5.834961c0,-5.403671 4.321259,-8.23568 12.963867,-8.496094l4.541016,-0.146484l0,-1.660149c0,-2.099625 -0.45166,-3.649902 -1.35498,-4.650887c-0.90332,-1.000977 -2.347809,-1.501469 -4.333496,-1.501469c-2.229828,0 -4.752594,0.68359 -7.568359,2.050785l-1.245117,-3.100582c1.318359,-0.716152 2.762848,-1.277672 4.333496,-1.68457c1.570648,-0.40691 3.145325,-0.610352 4.724121,-0.610352c3.190125,0 5.554199,0.708 7.092285,2.12402c1.538086,1.416019 2.307129,3.686508 2.307129,6.811523l0,18.261719l-3.00293,0zm-9.155273,-2.856438c2.522797,0 4.504395,-0.691734 5.944824,-2.075203c1.44043,-1.383469 2.160645,-3.320297 2.160645,-5.810547l0,-2.416992l-4.052734,0.170898c-3.222687,0.11393 -5.546051,0.614418 -6.970215,1.501457c-1.424164,0.887054 -2.13623,2.266434 -2.13623,4.138191c0,1.464851 0.443512,2.57975 1.330566,3.344734c0.887054,0.764969 2.128082,1.147461 3.723145,1.147461zm29.150391,0c0.716156,0 1.407867,-0.052902 2.075195,-0.158707c0.667328,-0.105789 1.196289,-0.21566 1.586914,-0.32959l0,3.100594c-0.439453,0.211586 -1.086426,0.386559 -1.940918,0.524902c-0.854492,0.138344 -1.623535,0.20752 -2.307129,0.20752c-5.175812,0 -7.763672,-2.726212 -7.763672,-8.178711l0,-15.917973l-3.833008,0l0,-1.953117l3.833008,-1.68457l1.708984,-5.712891l2.34375,0l0,6.201168l7.763672,0l0,3.14941l-7.763672,0l0,15.747074c0,1.611336 0.382477,2.848305 1.147461,3.710938c0.764984,0.862633 1.814758,1.293953 3.149414,1.293953zm13.061523,2.856438l-4.052734,0l0,-26.757813l4.052734,0l0,26.757813zm-4.394531,-34.008793c0,-0.927738 0.227875,-1.607258 0.683594,-2.038567c0.455719,-0.43132 1.025391,-0.646973 1.708984,-0.646973c0.651031,0 1.212555,0.219723 1.68457,0.65918c0.472015,0.439449 0.708008,1.114902 0.708008,2.02636c0,0.911472 -0.235992,1.590981 -0.708008,2.038582c-0.472015,0.44759 -1.033539,0.671379 -1.68457,0.671379c-0.683594,0 -1.253265,-0.223789 -1.708984,-0.671379c-0.455719,-0.447601 -0.683594,-1.12711 -0.683594,-2.038582zm18.847656,34.008793l-10.15625,-26.757813l4.345703,0l5.761719,15.869141c1.302094,3.710953 2.067047,6.119789 2.294922,7.226563l0.195313,0c0.179047,-0.862633 0.744629,-2.648911 1.696777,-5.358879c0.952148,-2.709984 3.088348,-8.622192 6.408691,-17.736824l4.345703,0l-10.15625,26.757813l-4.736328,0zm30.493164,0.488281c-3.955109,0 -7.075989,-1.204414 -9.362793,-3.613281c-2.286804,-2.408875 -3.430176,-5.753563 -3.430176,-10.03418c0,-4.313171 1.062012,-7.739243 3.186035,-10.27832c2.124023,-2.53907 4.976379,-3.80859 8.557129,-3.80859c3.352875,0 6.005859,1.102688 7.958984,3.308098c1.953125,2.205418 2.929688,5.114735 2.929688,8.728031l0,2.563477l-18.432617,0c0.08139,3.141296 0.874817,5.525711 2.380371,7.15332c1.505554,1.627609 3.625488,2.441406 6.359863,2.441406c2.880859,0 5.729156,-0.602211 8.544922,-1.806641l0,3.613274c-1.432312,0.6185 -2.787262,1.062027 -4.064941,1.330574c-1.277679,0.268562 -2.819824,0.402832 -4.626465,0.402832zm-1.098633,-24.340824c-2.148438,0 -3.861481,0.699871 -5.13916,2.099613c-1.277679,1.39975 -2.030426,3.336578 -2.258301,5.810547l13.989258,0c0,-2.555344 -0.569641,-4.512527 -1.708984,-5.871582c-1.139343,-1.359055 -2.766907,-2.038578 -4.882813,-2.038578zm13.256836,33.251965c-1.529968,0 -2.734375,-0.219734 -3.613281,-0.65918l0,-3.540047c1.155609,0.325523 2.360016,0.488281 3.613281,0.488281c1.611328,0 2.83609,-0.488281 3.674316,-1.464851c0.838226,-0.97657 1.257324,-2.38443 1.257324,-4.223625l0,-35.693359l4.150391,0l0,35.351555c0,3.092476 -0.78125,5.48909 -2.34375,7.189957c-1.5625,1.700844 -3.808594,2.55127 -6.738281,2.55127zm38.696289,-18.896492c0,3.141289 -1.139313,5.590813 -3.417969,7.348633c-2.278656,1.757813 -5.371063,2.636719 -9.277344,2.636719c-4.231781,0 -7.486969,-0.545242 -9.765625,-1.635742l0,-4.003914c1.464844,0.6185 3.059875,1.106773 4.785156,1.464851c1.725281,0.358086 3.434235,0.537109 5.126953,0.537109c2.766937,0 4.85025,-0.524895 6.25,-1.574707c1.39975,-1.049812 2.099609,-2.510567 2.099609,-4.382317c0,-1.236992 -0.248199,-2.25016 -0.744629,-3.039551c-0.496429,-0.789406 -1.326477,-1.517746 -2.490234,-2.185066c-1.163757,-0.66732 -2.933746,-1.424149 -5.310059,-2.270508c-3.320343,-1.188156 -5.692535,-2.596024 -7.116699,-4.223633c-1.424164,-1.627617 -2.13623,-3.751617 -2.13623,-6.372066c0,-2.750668 1.033508,-4.93977 3.100586,-6.56739c2.067078,-1.627609 4.801422,-2.441399 8.203125,-2.441399c3.548187,0 6.811523,0.651031 9.790039,1.953121l-1.293945,3.613277c-2.945984,-1.23698 -5.810547,-1.855469 -8.59375,-1.855469c-2.197266,0 -3.914368,0.472 -5.151367,1.416019c-1.237,0.944019 -1.855469,2.254219 -1.855469,3.93066c0,1.236992 0.227875,2.25016 0.683594,3.039551c0.455719,0.789398 1.224762,1.513668 2.307129,2.172855c1.082367,0.65918 2.738434,1.387527 4.968262,2.185059c3.7435,1.334641 6.319153,2.766922 7.727051,4.296875c1.407898,1.529953 2.111816,3.51561 2.111816,5.957031zm6.103516,6.90918c0,-1.0905 0.248199,-1.916504 0.744629,-2.478027c0.496429,-0.561523 1.208496,-0.842285 2.13623,-0.842285c0.944,0 1.680511,0.280762 2.209473,0.842285c0.528961,0.561523 0.793457,1.387527 0.793457,2.478027c0,1.057953 -0.268555,1.871742 -0.805664,2.441406c-0.537109,0.569664 -1.269531,0.854492 -2.197266,0.854492c-0.830078,0 -1.517731,-0.256348 -2.062988,-0.769035c-0.545258,-0.512703 -0.817871,-1.35498 -0.817871,-2.526863zm17.944336,2.587891l-4.052734,0l0,-26.757813l4.052734,0l0,26.757813zm-4.394531,-34.008793c0,-0.927738 0.227875,-1.607258 0.683594,-2.038567c0.455719,-0.43132 1.025391,-0.646973 1.708984,-0.646973c0.651031,0 1.212555,0.219723 1.68457,0.65918c0.472015,0.439449 0.708008,1.114902 0.708008,2.02636c0,0.911472 -0.235992,1.590981 -0.708008,2.038582c-0.472015,0.44759 -1.033539,0.671379 -1.68457,0.671379c-0.683594,0 -1.253265,-0.223789 -1.708984,-0.671379c-0.455719,-0.447601 -0.683594,-1.12711 -0.683594,-2.038582zm36.083984,20.605473c0,4.362 -1.098633,7.767731 -3.295898,10.217293c-2.197266,2.449547 -5.232727,3.674309 -9.106445,3.674309c-2.392578,0 -4.516602,-0.561516 -6.37207,-1.68457c-1.855469,-1.123055 -3.28775,-2.734375 -4.296875,-4.833984c-1.009125,-2.099617 -1.513672,-4.557281 -1.513672,-7.373047c0,-4.362 1.090485,-7.75959 3.271484,-10.192871c2.181,-2.433281 5.208313,-3.649899 9.082031,-3.649899c3.7435,0 6.717926,1.245098 8.92334,3.735348c2.205414,2.490242 3.308105,5.859352 3.308105,10.107422zm-20.385742,0c0,3.417976 0.683594,6.022133 2.050781,7.8125c1.367188,1.790382 3.377258,2.685547 6.030273,2.685547c2.653015,0 4.667145,-0.891106 6.04248,-2.67334c1.375336,-1.782234 2.062988,-4.390434 2.062988,-7.824707c0,-3.401711 -0.687653,-5.985504 -2.062988,-7.751465c-1.375336,-1.765961 -3.405762,-2.648926 -6.091309,-2.648926c-2.653015,0 -4.654938,0.870758 -6.005859,2.612305c-1.350922,1.741547 -2.026367,4.337547 -2.026367,7.788086z"/>
  </g>
 </g>
</svg>