<?xml version="1.0" encoding="utf-8"?>
<!-- Generator: Adobe Illustrator 22.1.0, SVG Export Plug-In . SVG Version: 6.00 Build 0)  -->
<svg version="1.1" id="Layer_1" xmlns="http://www.w3.org/2000/svg" xmlns:xlink="http://www.w3.org/1999/xlink" x="0px" y="0px"
	 viewBox="0 0 750 200" style="enable-background:new 0 0 750 200;" xml:space="preserve">
<style type="text/css">
	.st0{fill:none;stroke:#152935;stroke-width:4.0918;stroke-miterlimit:10;}
	.st1{fill:none;stroke:#5A6872;stroke-width:4.0918;stroke-miterlimit:10;}
	.st2{fill:none;stroke:#152935;stroke-width:2.7279;stroke-miterlimit:10;}
	.st3{fill:none;stroke:#2D74DA;stroke-width:4.0918;stroke-miterlimit:10;}
	.st4{enable-background:new    ;}
	.st5{fill:#152935;}
</style>
<g id="Layer_1_1_">
</g>
<g id="Notes">
	<g>
		<path class="st0" d="M169.7,100c0,31.1-25.2,56.4-56.4,56.4C82.2,156.4,57,131.1,57,100s25.2-56.4,56.4-56.4
			C144.5,43.6,169.7,68.9,169.7,100z"/>
		<line class="st1" x1="119.9" y1="44" x2="77.2" y2="68.7"/>
		<line class="st1" x1="104.3" y1="147" x2="61.8" y2="122.4"/>
		<line class="st1" x1="158.5" y1="84.3" x2="158.5" y2="133.7"/>
		<line class="st1" x1="68.2" y1="115.6" x2="68.2" y2="66.3"/>
		<line class="st1" x1="149.5" y1="131.2" x2="106.7" y2="156"/>
		<line class="st1" x1="122.4" y1="53" x2="164.9" y2="77.5"/>
		<g>
			<circle id="XMLID_16_" class="st2" cx="113.4" cy="105.2" r="4.1"/>
			<path id="XMLID_15_" class="st0" d="M112.3,130.2l5.8-3.3l-3.2-5.6c-0.4-0.6-0.3-1.4,0.1-2l4.5-6.2c2.9-4,4.5-8.9,4.5-13.8v-9.1
				c0-1.4-1.5-2.3-2.7-1.6c-3.1,1.8-7.9,4.5-7.9,4.5c-4.3,2.5-7.7,6.3-9.8,10.8l-3.1,7c-0.3,0.6-0.9,1.1-1.6,1.1h-6.5v6.7"/>
			<path id="XMLID_13_" class="st2" d="M96.9,129.6c-0.1-1.7-0.1-3.8,0.5-4.9l0.1-0.1c1.1-2,3.6-2.6,5.6-1.5s2.6,3.6,1.5,5.6
				l-0.1,0.1c-0.6,1.1-2.5,2.2-4,2.9"/>
		</g>
		<path class="st3" d="M130.5,90.7c0.1,0,0.1,0,0.2,0c4.1,0,7.4-3.3,7.4-7.4c0-3.9-3-7.1-6.9-7.4c-0.3-5-4.4-9-9.5-9
			c-3.8,0-7.1,2.2-8.6,5.5c-1.1-0.5-2.3-0.7-3.6-0.7c-5.2,0-9.5,4.2-9.5,9.5c0,4.8,3.6,8.8,8.2,9.4"/>
		<g class="st4">
			<path class="st5" d="M206,101.3c0-15.4,6.5-23.8,17.8-23.8c7.3,0,12.4,3.7,15.1,9.8l-3.2,1.9c-2-5-6.2-8.1-11.9-8.1
				c-8.5,0-13.6,6.4-13.6,17.7v5.2c0,11.2,5.1,17.4,13.6,17.4c6.1,0,10.3-3.3,12.2-8.6l3.2,1.9c-2.7,6.2-8.1,10.2-15.5,10.2
				C212.5,124.8,206,116.7,206,101.3z"/>
			<path class="st5" d="M252.5,124c-2.7,0-4.1-1.6-4.1-4.1V75.6h3.7v45.2h5.2v3.3H252.5z"/>
			<path class="st5" d="M262.9,107.2c0-11,5.8-17.5,14.6-17.5c8.8,0,14.6,6.5,14.6,17.5c0,11-5.8,17.5-14.6,17.5
				C268.7,124.8,262.9,118.2,262.9,107.2z M288.1,109.3v-4.2c0-7.8-4.1-12.1-10.6-12.1c-6.5,0-10.6,4.3-10.6,12.1v4.2
				c0,7.8,4.1,12.1,10.6,12.1C284,121.5,288.1,117.2,288.1,109.3z"/>
			<path class="st5" d="M322.6,118.7h-0.3c-1.2,3.1-4,6.1-9.8,6.1c-7.1,0-11.4-4.6-11.4-12.8V90.5h3.7v20.8c0,6.9,3.1,10.1,8.6,10.1
				c4.6,0,9-2.4,9-7.5V90.5h3.7V124h-3.7V118.7z"/>
			<path class="st5" d="M360.2,118.6H360c-1.8,3.7-5.1,6.2-10.2,6.2c-8.6,0-13.8-6.5-13.8-17.5c0-11.1,5.2-17.5,13.8-17.5
				c5.1,0,8.6,2.4,10.2,6.2h0.2V75.6h3.7V124h-3.7V118.6z M360.2,113.8v-13.3c0-4.4-4.4-7.5-9.6-7.5c-6.7,0-10.7,4.6-10.7,11.9v4.7
				c0,7.2,4,11.9,10.7,11.9C355.8,121.5,360.2,118.5,360.2,113.8z"/>
			<path class="st5" d="M380.5,83.7h-0.2V124h-3.8V78.3h4.9l24,40.3h0.2V78.3h3.8V124h-4.9L380.5,83.7z"/>
			<path class="st5" d="M445,124c-2.9,0-4.1-1.6-4.3-4.1v-1.2h-0.3c-1.5,3.7-4.9,6.1-10.1,6.1c-7,0-11.1-3.7-11.1-9.9
				c0-6,3.9-9.7,13.6-9.7h7.7v-3.9c0-5.5-2.9-8.3-8.6-8.3c-4.5,0-7.3,2-9.2,5.4l-2.4-2c1.8-3.9,5.6-6.7,11.7-6.7
				c7.8,0,12.2,4.1,12.2,11.2v19.8h4.5v3.3H445z M440.6,114.3V108h-7.9c-6.7,0-9.6,2.3-9.6,6v1.6c0,3.9,3.1,6,7.7,6
				C436.2,121.6,440.6,118.8,440.6,114.3z"/>
			<path class="st5" d="M462.4,124c-2.7,0-4.1-1.6-4.1-4.1V93.8h-5.8v-3.3h3.8c1.8,0,2.4-0.7,2.4-2.6v-6.8h3.4v9.4h7.6v3.3H462v27
				h7.1v3.3H462.4z"/>
			<path class="st5" d="M477.8,79v-0.7c0-1.4,0.8-2.4,2.6-2.4c1.8,0,2.6,1,2.6,2.4V79c0,1.4-0.8,2.4-2.6,2.4
				C478.6,81.4,477.8,80.4,477.8,79z M478.5,90.5h3.7V124h-3.7V90.5z"/>
			<path class="st5" d="M489.7,90.5h3.9l10.3,29.5h0.3l10.2-29.5h3.8L506.1,124h-4.3L489.7,90.5z"/>
			<path class="st5" d="M522.5,107.2c0-11,5.7-17.5,14.6-17.5c8.6,0,14.1,6.7,14.1,16.5v1.8h-24.8v1.6c0,7,4.1,11.9,10.9,11.9
				c4.8,0,8.3-2.4,10.1-6.7l2.8,1.8c-2.1,4.9-6.7,8.2-13.1,8.2C528.2,124.8,522.5,118.2,522.5,107.2z M526.4,104.8v0.3h20.8v-0.5
				c0-7.1-4.1-11.7-10.1-11.7C530.6,92.8,526.4,97.7,526.4,104.8z"/>
			<path class="st5" d="M580.7,78.3v33.8c0,8.1-4.9,12.7-12.4,12.7c-6.4,0-10.9-3.9-12-9.6l3.5-0.9c1,4,3.9,6.9,8.7,6.9
				c5.4,0,8.3-3.4,8.3-9.8V81.8H561v-3.5H580.7z"/>
			<path class="st5" d="M589.6,117l2.9-2.4c3.2,4.3,7.1,6.7,13,6.7c7.1,0,11-3.5,11-9.6c0-5.6-3.4-7.8-9.2-9l-4.1-0.9
				c-8.6-1.8-12.4-5.9-12.4-12.2c0-8,5.9-12.1,14.7-12.1c6.8,0,11.5,2.6,14.5,7l-2.9,2.2c-2.6-3.6-6.2-5.7-11.7-5.7
				c-6.5,0-10.6,2.9-10.6,8.5c0,5.4,3.7,7.5,9.4,8.7l4.1,0.9c9.1,2,12.3,6.2,12.3,12.5c0,8.3-5.7,13.2-15,13.2
				C598,124.8,593.2,121.7,589.6,117z"/>
			<path class="st5" d="M629.4,121.7v-0.7c0-1.8,1-2.9,3.1-2.9c2.1,0,3.1,1.2,3.1,2.9v0.7c0,1.8-1,2.9-3.1,2.9
				C630.4,124.6,629.4,123.4,629.4,121.7z"/>
			<path class="st5" d="M646.5,79v-0.7c0-1.4,0.8-2.4,2.6-2.4s2.6,1,2.6,2.4V79c0,1.4-0.8,2.4-2.6,2.4S646.5,80.4,646.5,79z
				 M647.2,90.5h3.7V124h-3.7V90.5z"/>
			<path class="st5" d="M660.4,107.2c0-11,5.8-17.5,14.6-17.5c8.8,0,14.6,6.5,14.6,17.5c0,11-5.8,17.5-14.6,17.5
				C666.2,124.8,660.4,118.2,660.4,107.2z M685.6,109.3v-4.2c0-7.8-4.1-12.1-10.6-12.1c-6.5,0-10.6,4.3-10.6,12.1v4.2
				c0,7.8,4.1,12.1,10.6,12.1C681.5,121.5,685.6,117.2,685.6,109.3z"/>
		</g>
	</g>
</g>
</svg>
