<?xml version="1.0" encoding="UTF-8"?>
<svg width="495px" height="132px" viewBox="0 0 495 132" version="1.1" xmlns="http://www.w3.org/2000/svg" xmlns:xlink="http://www.w3.org/1999/xlink">
    <!-- Generator: Sketch 52.2 (67145) - http://www.bohemiancoding.com/sketch -->
    <title>400 x 400 copy 2</title>
    <desc>Created with Sketch.</desc>
    <g id="400-x-400-copy-2" stroke="none" stroke-width="1" fill="none" fill-rule="evenodd">
        <path d="M132.011435,117.00352 C133.668289,117.00352 135.011435,118.346666 135.011435,120.00352 C135.011435,121.660375 133.668289,123.00352 132.011435,123.00352 L27.8206321,123.00352 L27.2608645,122.767051 C13.9152584,117.129296 7,107.770456 7,95.063384 C7,85.6166018 10.1386341,77.6527113 17.3539893,71.1261211 C21.8342056,67.0735783 26.5155143,64.1405932 31.3938738,62.3506103 C32.798025,37.3482741 44.0848943,20.6062715 65.0727626,12.6628895 C86.0761892,4.71361909 109.016405,9.73375749 133.669302,27.4239721 C144.644537,21.6261255 156.084309,19.2166236 167.925759,20.2235252 C180.35995,21.2808289 192.012446,26.0002004 202.830852,34.3345163 C204.143383,35.345668 204.3877,37.2293852 203.376548,38.5419165 C202.365396,39.8544477 200.481679,40.098764 199.169148,39.0876123 C189.240336,31.4386244 178.673885,27.1591117 167.417401,26.2019509 C156.181264,25.2465201 145.370076,27.6952421 134.910699,33.5807636 L133.220777,34.5316872 L131.659768,33.3813225 C107.926231,15.8912174 86.5179964,10.9617594 67.1965892,18.2744277 C48.0005429,25.53965 38.0996367,40.8020849 37.2966539,64.6459275 L37.2240161,66.8028403 L35.1559373,67.4197676 C30.4369561,68.8274838 25.8466116,71.5346189 21.3789305,75.5758231 C15.4955828,80.8975569 13,87.2297853 13,95.063384 C13,105.062442 18.194757,112.25758 29.0456043,117.00352 L132.011435,117.00352 Z" id="Path-11" fill="#FFFFFF" fill-rule="nonzero"></path>
        <g id="Group-2" transform="translate(64.000000, 39.000000)" fill-rule="nonzero" stroke="#FFFFFF" stroke-width="3">
            <path d="M7.57245895,37.2178227 L22.6073963,37.2178227 C24.8219033,28.4163771 25.4991599,21.8953048 24.6391662,17.6546057 C23.7791725,13.4139066 20.5661171,7.52903806 15,-2.84217094e-14 C9.45614833,7.40639712 6.24300378,13.2852813 5.36056632,17.6366524 C4.47812887,21.9880236 5.21542641,28.5150803 7.57245895,37.2178227 Z" id="Path-12"></path>
            <path d="M7.18720515,14.0714065 L23.5,14.0714065" id="Path-13"></path>
            <g id="Stacked-Group-5" transform="translate(8.000000, 44.000000)" stroke-linecap="round">
                <path d="M7,0 L7,11" id="Path-14"></path>
                <path d="M12.5,0 L12.5,6" id="Path-14"></path>
                <path d="M1.5,0 L1.5,6" id="Path-14"></path>
            </g>
            <path d="M6.18188586,28 C3.72446564,29.3941059 1.93423891,31.3548759 0.811205661,33.8823101 C-0.1156797,35.9683051 -0.22943221,40.0094063 0.373675371,43.5792381 C0.501606767,44.3364721 0.643163903,45.0682198 0.79834678,45.7744812 L0.79828229,45.7744954 C0.879502798,46.1441426 1.24500326,46.3779586 1.61465043,46.2967381 C1.90808923,46.2322624 2.12531193,45.9841671 2.15045532,45.6847823 C2.15045532,45.6847823 2.15045532,45.6847823 2.15045532,45.6847823 C2.42588803,42.4051778 3.04144306,40.2864638 3.99712042,39.3286404 C5.31880324,38.0039896 6.43676191,37.2675505 7.35099644,37.1193233" id="Path-15"></path>
            <path d="M29.1818859,28 C26.7244656,29.3941059 24.9342389,31.3548759 23.8112057,33.8823101 C22.8843203,35.9683051 22.7705678,40.0094063 23.3736754,43.5792381 C23.5016068,44.3364721 23.6431639,45.0682198 23.7983468,45.7744812 L23.7982823,45.7744954 C23.8795028,46.1441426 24.2450033,46.3779586 24.6146504,46.2967381 C24.9080892,46.2322624 25.1253119,45.9841671 25.1504553,45.6847823 C25.1504553,45.6847823 25.1504553,45.6847823 25.1504553,45.6847823 C25.425888,42.4051778 26.0414431,40.2864638 26.9971204,39.3286404 C28.3188032,38.0039896 29.4367619,37.2675505 30.3509964,37.1193233" id="Path-15" transform="translate(26.675498, 37.156425) scale(-1, 1) translate(-26.675498, -37.156425) "></path>
        </g>
        <path d="M130.138672,49.4931641 C126.216126,49.4931641 123.11964,50.7993033 120.849121,53.4116211 C118.578602,56.0239388 117.443359,59.6005632 117.443359,64.1416016 C117.443359,68.8128489 118.537912,72.422025 120.727051,74.9692383 C122.916189,77.5164515 126.037089,78.7900391 130.089844,78.7900391 C132.580091,78.7900391 135.420231,78.3424524 138.610352,77.4472656 L138.610352,81.0849609 C136.136381,82.0127 133.084654,82.4765625 129.455078,82.4765625 C124.19789,82.4765625 120.141128,80.8815264 117.284668,77.6914062 C114.428208,74.5012861 113,69.9684539 113,64.0927734 C113,60.4143696 113.687656,57.1917456 115.062988,54.4248047 C116.438321,51.6578638 118.423978,49.5257236 121.02002,48.0283203 C123.616061,46.530917 126.671857,45.7822266 130.1875,45.7822266 C133.931008,45.7822266 137.20246,46.4658135 140.001953,47.8330078 L138.244141,51.3974609 C135.542304,50.1279233 132.840508,49.4931641 130.138672,49.4931641 Z M149.84082,81.9882812 L145.788086,81.9882812 L145.788086,44 L149.84082,44 L149.84082,81.9882812 Z M181.530273,68.5849609 C181.530273,72.9469619 180.431652,76.3526896 178.234375,78.8022461 C176.037098,81.2518026 173.001647,82.4765625 169.12793,82.4765625 C166.73534,82.4765625 164.611337,81.9150447 162.755859,80.7919922 C160.900381,79.6689397 159.468104,78.0576277 158.458984,75.9580078 C157.449865,73.8583879 156.945312,71.4007302 156.945312,68.5849609 C156.945312,64.22296 158.035796,60.8253702 160.216797,58.3920898 C162.397797,55.9588094 165.425111,54.7421875 169.298828,54.7421875 C173.042336,54.7421875 176.016753,55.9872922 178.222168,58.4775391 C180.427583,60.9677859 181.530273,64.3368928 181.530273,68.5849609 Z M161.144531,68.5849609 C161.144531,72.0029468 161.828118,74.6070874 163.195312,76.3974609 C164.562507,78.1878345 166.572578,79.0830078 169.225586,79.0830078 C171.878594,79.0830078 173.892734,78.1919034 175.268066,76.409668 C176.643399,74.6274325 177.331055,72.0192229 177.331055,68.5849609 C177.331055,65.1832512 176.643399,62.5994554 175.268066,60.8334961 C173.892734,59.0675367 171.862318,58.1845703 169.176758,58.1845703 C166.52375,58.1845703 164.521817,59.0553298 163.170898,60.796875 C161.81998,62.5384202 161.144531,65.1344229 161.144531,68.5849609 Z M192.443359,55.2304688 L192.443359,72.5888672 C192.443359,74.7698677 192.939774,76.3974556 193.932617,77.4716797 C194.925461,78.5459038 196.479807,79.0830078 198.595703,79.0830078 C201.395196,79.0830078 203.441888,78.3180415 204.73584,76.7880859 C206.029792,75.2581304 206.676758,72.759783 206.676758,69.2929688 L206.676758,55.2304688 L210.729492,55.2304688 L210.729492,81.9882812 L207.384766,81.9882812 L206.798828,78.3994141 L206.579102,78.3994141 C205.749019,79.71778 204.597501,80.7268845 203.124512,81.4267578 C201.651523,82.1266311 199.971038,82.4765625 198.083008,82.4765625 C194.827783,82.4765625 192.39047,81.7034583 190.770996,80.1572266 C189.151522,78.6109949 188.341797,76.1370613 188.341797,72.7353516 L188.341797,55.2304688 L192.443359,55.2304688 Z M237.536133,78.3994141 L237.316406,78.3994141 C235.444652,81.1175266 232.645201,82.4765625 228.917969,82.4765625 C225.418602,82.4765625 222.696462,81.2802854 220.751465,78.8876953 C218.806468,76.4951052 217.833984,73.0934465 217.833984,68.6826172 C217.833984,64.2717878 218.810537,60.8457153 220.763672,58.4042969 C222.716807,55.9628784 225.434878,54.7421875 228.917969,54.7421875 C232.547544,54.7421875 235.330719,56.0605337 237.267578,58.6972656 L237.584961,58.6972656 L237.414062,56.7685547 L237.316406,54.8886719 L237.316406,44 L241.369141,44 L241.369141,81.9882812 L238.073242,81.9882812 L237.536133,78.3994141 Z M229.430664,79.0830078 C232.197605,79.0830078 234.203607,78.3302484 235.44873,76.824707 C236.693854,75.3191656 237.316406,72.8899907 237.316406,69.5371094 L237.316406,68.6826172 C237.316406,64.8902805 236.685716,62.1844156 235.424316,60.5649414 C234.162917,58.9454672 232.148777,58.1357422 229.381836,58.1357422 C227.005522,58.1357422 225.186693,59.0593983 223.925293,60.9067383 C222.663893,62.7540782 222.033203,65.3622878 222.033203,68.7314453 C222.033203,72.1494312 222.659824,74.729158 223.913086,76.4707031 C225.166347,78.2122483 227.005522,79.0830078 229.430664,79.0830078 Z M278.454102,81.9882812 L273.717773,81.9882812 L254.210938,52.0322266 L254.015625,52.0322266 C254.276043,55.5478691 254.40625,58.7704932 254.40625,61.7001953 L254.40625,81.9882812 L250.573242,81.9882812 L250.573242,46.2949219 L255.260742,46.2949219 L274.71875,76.1289062 L274.914062,76.1289062 C274.88151,75.6894509 274.808269,74.2775184 274.694336,71.8930664 C274.580403,69.5086144 274.539713,67.8037161 274.572266,66.7783203 L274.572266,46.2949219 L278.454102,46.2949219 L278.454102,81.9882812 Z M304.113281,81.9882812 L303.307617,78.1796875 L303.112305,78.1796875 C301.777663,79.8561282 300.447109,80.9913707 299.120605,81.5854492 C297.794101,82.1795277 296.138031,82.4765625 294.152344,82.4765625 C291.499336,82.4765625 289.420092,81.7929756 287.914551,80.4257812 C286.409009,79.0585869 285.65625,77.1136194 285.65625,74.5908203 C285.65625,69.1871475 289.977496,66.3551445 298.620117,66.0947266 L303.161133,65.9482422 L303.161133,64.2880859 C303.161133,62.1884661 302.709477,60.6381886 301.806152,59.637207 C300.902828,58.6362255 299.458343,58.1357422 297.472656,58.1357422 C295.242827,58.1357422 292.720066,58.8193291 289.904297,60.1865234 L288.65918,57.0859375 C289.977546,56.3697881 291.42203,55.8082703 292.992676,55.4013672 C294.563322,54.9944641 296.138013,54.7910156 297.716797,54.7910156 C300.906917,54.7910156 303.270988,55.4990164 304.809082,56.9150391 C306.347176,58.3310618 307.116211,60.6015469 307.116211,63.7265625 L307.116211,81.9882812 L304.113281,81.9882812 Z M294.958008,79.1318359 C297.480807,79.1318359 299.462395,78.4401111 300.902832,77.0566406 C302.343269,75.6731702 303.063477,73.7363406 303.063477,71.2460938 L303.063477,68.8291016 L299.010742,69 C295.78807,69.1139329 293.464688,69.6144161 292.040527,70.5014648 C290.616367,71.3885135 289.904297,72.7678943 289.904297,74.6396484 C289.904297,76.1044995 290.347815,77.2193972 291.234863,77.984375 C292.121912,78.7493528 293.362948,79.1318359 294.958008,79.1318359 Z M324.108398,79.1318359 C324.824548,79.1318359 325.516273,79.0789393 326.183594,78.9731445 C326.850915,78.8673497 327.379881,78.7574875 327.770508,78.6435547 L327.770508,81.7441406 C327.331052,81.9557302 326.684086,82.1306959 325.82959,82.269043 C324.975093,82.40739 324.206058,82.4765625 323.522461,82.4765625 C318.346654,82.4765625 315.758789,79.7503528 315.758789,74.2978516 L315.758789,58.3798828 L311.925781,58.3798828 L311.925781,56.4267578 L315.758789,54.7421875 L317.467773,49.0292969 L319.811523,49.0292969 L319.811523,55.2304688 L327.575195,55.2304688 L327.575195,58.3798828 L319.811523,58.3798828 L319.811523,74.1269531 C319.811523,75.7382893 320.194007,76.9752561 320.958984,77.8378906 C321.723962,78.7005251 322.773756,79.1318359 324.108398,79.1318359 Z M337.169922,81.9882812 L333.117188,81.9882812 L333.117188,55.2304688 L337.169922,55.2304688 L337.169922,81.9882812 Z M332.775391,47.9794922 C332.775391,47.0517532 333.003253,46.3722352 333.458984,45.940918 C333.914716,45.5096007 334.484372,45.2939453 335.167969,45.2939453 C335.819014,45.2939453 336.380531,45.5136697 336.852539,45.953125 C337.324547,46.3925803 337.560547,47.0680293 337.560547,47.9794922 C337.560547,48.8909551 337.324547,49.570473 336.852539,50.0180664 C336.380531,50.4656598 335.819014,50.6894531 335.167969,50.6894531 C334.484372,50.6894531 333.914716,50.4656598 333.458984,50.0180664 C333.003253,49.570473 332.775391,48.8909551 332.775391,47.9794922 Z M351.623047,81.9882812 L341.466797,55.2304688 L345.8125,55.2304688 L351.574219,71.0996094 C352.876309,74.8105654 353.641275,77.2193955 353.869141,78.3261719 L354.064453,78.3261719 C354.24349,77.4635374 354.809077,75.6772596 355.76123,72.9672852 C356.713384,70.2573107 358.849593,64.3450977 362.169922,55.2304688 L366.515625,55.2304688 L356.359375,81.9882812 L351.623047,81.9882812 Z M382.116211,82.4765625 C378.161113,82.4765625 375.040213,81.2721475 372.753418,78.8632812 C370.466623,76.454415 369.323242,73.1097219 369.323242,68.8291016 C369.323242,64.515929 370.385243,61.0898564 372.509277,58.5507812 C374.633311,56.0117061 377.485659,54.7421875 381.066406,54.7421875 C384.419288,54.7421875 387.072256,55.8448783 389.025391,58.050293 C390.978525,60.2557076 391.955078,63.165021 391.955078,66.7783203 L391.955078,69.3417969 L373.522461,69.3417969 C373.603842,72.4830886 374.397291,74.8675049 375.902832,76.4951172 C377.408373,78.1227295 379.528307,78.9365234 382.262695,78.9365234 C385.143569,78.9365234 387.991848,78.3343159 390.807617,77.1298828 L390.807617,80.7431641 C389.375318,81.3616567 388.020351,81.8051744 386.742676,82.0737305 C385.465,82.3422865 383.922861,82.4765625 382.116211,82.4765625 Z M381.017578,58.1357422 C378.86913,58.1357422 377.156094,58.835605 375.878418,60.2353516 C374.600742,61.6350981 373.847983,63.5719277 373.620117,66.0458984 L387.609375,66.0458984 C387.609375,63.4905471 387.039719,61.5333727 385.900391,60.1743164 C384.761062,58.8152601 383.133474,58.1357422 381.017578,58.1357422 Z M394.274414,91.3876953 C392.744458,91.3876953 391.540043,91.1679709 390.661133,90.7285156 L390.661133,87.1884766 C391.816738,87.513999 393.021153,87.6767578 394.274414,87.6767578 C395.88575,87.6767578 397.11051,87.1884814 397.94873,86.2119141 C398.786951,85.2353467 399.206055,83.8274832 399.206055,81.9882812 L399.206055,46.2949219 L403.356445,46.2949219 L403.356445,81.6464844 C403.356445,84.7389478 402.575203,87.1355709 401.012695,88.8364258 C399.450188,90.5372806 397.204116,91.3876953 394.274414,91.3876953 Z M432.970703,72.4912109 C432.970703,75.6325027 431.831392,78.0820225 429.552734,79.8398438 C427.274077,81.597665 424.18166,82.4765625 420.275391,82.4765625 C416.043599,82.4765625 412.788423,81.9313206 410.509766,80.8408203 L410.509766,76.8369141 C411.974617,77.4554067 413.569653,77.9436831 415.294922,78.3017578 C417.020191,78.6598325 418.729158,78.8388672 420.421875,78.8388672 C423.188816,78.8388672 425.272128,78.3139701 426.671875,77.2641602 C428.071622,76.2143502 428.771484,74.7535901 428.771484,72.8818359 C428.771484,71.6448506 428.523277,70.6316771 428.026855,69.8422852 C427.530434,69.0528932 426.700364,68.3245476 425.536621,67.6572266 C424.372878,66.9899055 422.602876,66.2330771 420.226562,65.3867188 C416.906233,64.1985618 414.534024,62.7906982 413.109863,61.1630859 C411.685703,59.5354736 410.973633,57.4114714 410.973633,54.7910156 C410.973633,52.0403508 412.007151,49.8512451 414.074219,48.2236328 C416.141286,46.5960205 418.875634,45.7822266 422.277344,45.7822266 C425.825539,45.7822266 429.088852,46.4332617 432.067383,47.7353516 L430.773438,51.3486328 C427.827459,50.1116475 424.962905,49.4931641 422.179688,49.4931641 C419.982411,49.4931641 418.265306,49.9651646 417.02832,50.9091797 C415.791335,51.8531948 415.172852,53.1634031 415.172852,54.8398438 C415.172852,56.0768291 415.400714,57.0900026 415.856445,57.8793945 C416.312177,58.6687865 417.081212,59.3930631 418.163574,60.0522461 C419.245936,60.7114291 420.902007,61.4397747 423.131836,62.2373047 C426.875344,63.5719468 429.451002,65.0042241 430.858887,66.5341797 C432.266771,68.0641353 432.970703,70.0497925 432.970703,72.4912109 Z M439.074219,79.4003906 C439.074219,78.3098904 439.322426,77.4838895 439.818848,76.9223633 C440.315269,76.360837 441.027339,76.0800781 441.955078,76.0800781 C442.899093,76.0800781 443.635577,76.360837 444.164551,76.9223633 C444.693525,77.4838895 444.958008,78.3098904 444.958008,79.4003906 C444.958008,80.4583386 444.689456,81.2721326 444.152344,81.8417969 C443.615232,82.4114612 442.882817,82.6962891 441.955078,82.6962891 C441.124996,82.6962891 440.43734,82.439944 439.89209,81.9272461 C439.34684,81.4145482 439.074219,80.5722715 439.074219,79.4003906 Z M457.018555,81.9882812 L452.96582,81.9882812 L452.96582,55.2304688 L457.018555,55.2304688 L457.018555,81.9882812 Z M452.624023,47.9794922 C452.624023,47.0517532 452.851886,46.3722352 453.307617,45.940918 C453.763349,45.5096007 454.333004,45.2939453 455.016602,45.2939453 C455.667646,45.2939453 456.229164,45.5136697 456.701172,45.953125 C457.173179,46.3925803 457.40918,47.0680293 457.40918,47.9794922 C457.40918,48.8909551 457.173179,49.570473 456.701172,50.0180664 C456.229164,50.4656598 455.667646,50.6894531 455.016602,50.6894531 C454.333004,50.6894531 453.763349,50.4656598 453.307617,50.0180664 C452.851886,49.570473 452.624023,48.8909551 452.624023,47.9794922 Z M488.708008,68.5849609 C488.708008,72.9469619 487.609386,76.3526896 485.412109,78.8022461 C483.214833,81.2518026 480.179381,82.4765625 476.305664,82.4765625 C473.913074,82.4765625 471.789072,81.9150447 469.933594,80.7919922 C468.078116,79.6689397 466.645838,78.0576277 465.636719,75.9580078 C464.627599,73.8583879 464.123047,71.4007302 464.123047,68.5849609 C464.123047,64.22296 465.213531,60.8253702 467.394531,58.3920898 C469.575532,55.9588094 472.602845,54.7421875 476.476562,54.7421875 C480.220071,54.7421875 483.194488,55.9872922 485.399902,58.4775391 C487.605317,60.9677859 488.708008,64.3368928 488.708008,68.5849609 Z M468.322266,68.5849609 C468.322266,72.0029468 469.005853,74.6070874 470.373047,76.3974609 C471.740241,78.1878345 473.750312,79.0830078 476.40332,79.0830078 C479.056328,79.0830078 481.070468,78.1919034 482.445801,76.409668 C483.821133,74.6274325 484.508789,72.0192229 484.508789,68.5849609 C484.508789,65.1832512 483.821133,62.5994554 482.445801,60.8334961 C481.070468,59.0675367 479.040052,58.1845703 476.354492,58.1845703 C473.701484,58.1845703 471.699551,59.0553298 470.348633,60.796875 C468.997715,62.5384202 468.322266,65.1344229 468.322266,68.5849609 Z" id="CloudNativeJS.io" fill="#FFFFFF"></path>
    </g>
</svg>